<svg viewBox="0 0 200 200" xmlns="http://www.w3.org/2000/svg">
  <defs>
    <filter id="shadow" x="-20%" y="-20%" width="140%" height="140%">
      <feDropShadow dx="0" dy="6" stdDeviation="8" flood-color="rgba(0,0,0,0.25)"/>
    </filter>
  </defs>
  
  <!-- Main circular background -->
  <circle cx="100" cy="100" r="70" 
          fill="#000000" 
          filter="url(#shadow)"
          stroke="none"/>
  
  <!-- Top accent arc -->
  <path d="M 45 100 A 55 55 0 0 1 155 100" 
        fill="none" 
        stroke="#ffffff" 
        stroke-width="3" 
        opacity="0.8"
        stroke-linecap="round"/>
  
  <!-- Neural network symbol -->
  <g transform="translate(100, 100)">
    <!-- Central circle -->
    <circle cx="0" cy="0" r="8" fill="#ffffff"/>
    
    <!-- Input layer nodes -->
    <circle cx="-25" cy="-15" r="4" fill="#ffffff"/>
    <circle cx="-25" cy="0" r="4" fill="#ffffff"/>
    <circle cx="-25" cy="15" r="4" fill="#ffffff"/>
    
    <!-- Output layer nodes -->
    <circle cx="25" cy="-10" r="4" fill="#ffffff"/>
    <circle cx="25" cy="10" r="4" fill="#ffffff"/>
    
    <!-- Connections -->
    <line x1="-21" y1="-15" x2="-8" y2="-3" stroke="#ffffff" stroke-width="1.5"/>
    <line x1="-21" y1="0" x2="-8" y2="0" stroke="#ffffff" stroke-width="1.5"/>
    <line x1="-21" y1="15" x2="-8" y2="3" stroke="#ffffff" stroke-width="1.5"/>
    
    <line x1="8" y1="-3" x2="21" y2="-10" stroke="#ffffff" stroke-width="1.5"/>
    <line x1="8" y1="3" x2="21" y2="10" stroke="#ffffff" stroke-width="1.5"/>
    
    <!-- Additional connections for network effect -->
    <line x1="-21" y1="-15" x2="-8" y2="3" stroke="#ffffff" stroke-width="1" opacity="0.7"/>
    <line x1="-21" y1="15" x2="-8" y2="-3" stroke="#ffffff" stroke-width="1" opacity="0.7"/>
  </g>
  
  <!-- Bottom content lines -->
  <rect x="55" y="145" width="90" height="2" rx="1" fill="#ffffff" opacity="0.6"/>
  <rect x="70" y="155" width="70" height="2" rx="1" fill="#ffffff" opacity="0.4"/>
</svg>
